<mxfile host="app.diagrams.net" modified="2023-11-14T14:31:33.667Z" agent="Mozilla/5.0 (Windows NT 10.0; Win64; x64) AppleWebKit/537.36 (KHTML, like Gecko) Chrome/119.0.0.0 Safari/537.36" etag="9Gx2OBnkmgrCqRA5d_Dj" version="22.1.0" type="device">
  <diagram name="Страница — 1" id="qOUhVUbfRyW9krve8uwG">
    <mxGraphModel dx="951" dy="545" grid="0" gridSize="10" guides="1" tooltips="1" connect="1" arrows="1" fold="1" page="1" pageScale="1" pageWidth="827" pageHeight="1169" background="#FFFFFF" math="0" shadow="0">
      <root>
        <mxCell id="0" />
        <mxCell id="1" parent="0" />
        <mxCell id="4RLCPVnjVEkTh-LawadL-29" value="Idle" style="html=1;whiteSpace=wrap;" vertex="1" parent="1">
          <mxGeometry x="300" y="124" width="110" height="50" as="geometry" />
        </mxCell>
        <mxCell id="4RLCPVnjVEkTh-LawadL-30" value="Object" style="html=1;whiteSpace=wrap;" vertex="1" parent="1">
          <mxGeometry x="525" y="151" width="156" height="264" as="geometry" />
        </mxCell>
        <mxCell id="4RLCPVnjVEkTh-LawadL-31" value="Startup" style="html=1;whiteSpace=wrap;" vertex="1" parent="1">
          <mxGeometry x="552" y="183" width="110" height="50" as="geometry" />
        </mxCell>
        <mxCell id="4RLCPVnjVEkTh-LawadL-32" value="Ready" style="html=1;whiteSpace=wrap;" vertex="1" parent="1">
          <mxGeometry x="552" y="263" width="110" height="50" as="geometry" />
        </mxCell>
        <mxCell id="4RLCPVnjVEkTh-LawadL-33" value="" style="endArrow=open;endFill=1;endSize=8;html=1;exitX=1;exitY=0.5;exitDx=0;exitDy=0;entryX=0;entryY=0.5;entryDx=0;entryDy=0;" edge="1" parent="1" source="4RLCPVnjVEkTh-LawadL-29" target="4RLCPVnjVEkTh-LawadL-31">
          <mxGeometry width="160" relative="1" as="geometry">
            <mxPoint x="231" y="266" as="sourcePoint" />
            <mxPoint x="391" y="266" as="targetPoint" />
            <Array as="points">
              <mxPoint x="488" y="149" />
            </Array>
          </mxGeometry>
        </mxCell>
        <mxCell id="4RLCPVnjVEkTh-LawadL-34" value="Running" style="html=1;whiteSpace=wrap;" vertex="1" parent="1">
          <mxGeometry x="552" y="337" width="110" height="50" as="geometry" />
        </mxCell>
        <mxCell id="4RLCPVnjVEkTh-LawadL-35" value="" style="endArrow=open;endFill=1;endSize=8;html=1;exitX=0.5;exitY=1;exitDx=0;exitDy=0;entryX=0.5;entryY=0;entryDx=0;entryDy=0;" edge="1" parent="1" source="4RLCPVnjVEkTh-LawadL-31" target="4RLCPVnjVEkTh-LawadL-32">
          <mxGeometry width="160" relative="1" as="geometry">
            <mxPoint x="267" y="308" as="sourcePoint" />
            <mxPoint x="427" y="308" as="targetPoint" />
          </mxGeometry>
        </mxCell>
        <mxCell id="4RLCPVnjVEkTh-LawadL-36" value="" style="endArrow=open;endFill=1;endSize=8;html=1;exitX=0.5;exitY=1;exitDx=0;exitDy=0;entryX=0.5;entryY=0;entryDx=0;entryDy=0;" edge="1" parent="1" source="4RLCPVnjVEkTh-LawadL-32" target="4RLCPVnjVEkTh-LawadL-34">
          <mxGeometry width="160" relative="1" as="geometry">
            <mxPoint x="606.66" y="313" as="sourcePoint" />
            <mxPoint x="606.66" y="343" as="targetPoint" />
          </mxGeometry>
        </mxCell>
        <mxCell id="4RLCPVnjVEkTh-LawadL-37" value="" style="endArrow=open;endFill=1;endSize=8;html=1;exitX=0;exitY=0.25;exitDx=0;exitDy=0;entryX=0.75;entryY=1;entryDx=0;entryDy=0;" edge="1" parent="1" source="4RLCPVnjVEkTh-LawadL-34" target="4RLCPVnjVEkTh-LawadL-29">
          <mxGeometry width="160" relative="1" as="geometry">
            <mxPoint x="627" y="253" as="sourcePoint" />
            <mxPoint x="627" y="283" as="targetPoint" />
            <Array as="points" />
          </mxGeometry>
        </mxCell>
        <mxCell id="4RLCPVnjVEkTh-LawadL-43" value="Failure" style="swimlane;fontStyle=0;childLayout=stackLayout;horizontal=1;startSize=26;fillColor=none;horizontalStack=0;resizeParent=1;resizeParentMax=0;resizeLast=0;collapsible=1;marginBottom=0;whiteSpace=wrap;html=1;" vertex="1" parent="1">
          <mxGeometry x="285" y="330" width="140" height="78" as="geometry" />
        </mxCell>
        <mxCell id="4RLCPVnjVEkTh-LawadL-44" value="entry/start alarm" style="text;strokeColor=none;fillColor=none;align=left;verticalAlign=top;spacingLeft=4;spacingRight=4;overflow=hidden;rotatable=0;points=[[0,0.5],[1,0.5]];portConstraint=eastwest;whiteSpace=wrap;html=1;" vertex="1" parent="4RLCPVnjVEkTh-LawadL-43">
          <mxGeometry y="26" width="140" height="26" as="geometry" />
        </mxCell>
        <mxCell id="4RLCPVnjVEkTh-LawadL-45" value="exit/stop alarm" style="text;strokeColor=none;fillColor=none;align=left;verticalAlign=top;spacingLeft=4;spacingRight=4;overflow=hidden;rotatable=0;points=[[0,0.5],[1,0.5]];portConstraint=eastwest;whiteSpace=wrap;html=1;" vertex="1" parent="4RLCPVnjVEkTh-LawadL-43">
          <mxGeometry y="52" width="140" height="26" as="geometry" />
        </mxCell>
        <mxCell id="4RLCPVnjVEkTh-LawadL-47" value="" style="endArrow=open;endFill=1;endSize=8;html=1;exitX=0;exitY=0.75;exitDx=0;exitDy=0;entryX=0.994;entryY=0.684;entryDx=0;entryDy=0;entryPerimeter=0;" edge="1" parent="1" source="4RLCPVnjVEkTh-LawadL-34" target="4RLCPVnjVEkTh-LawadL-44">
          <mxGeometry width="160" relative="1" as="geometry">
            <mxPoint x="617" y="323" as="sourcePoint" />
            <mxPoint x="617" y="347" as="targetPoint" />
          </mxGeometry>
        </mxCell>
        <mxCell id="4RLCPVnjVEkTh-LawadL-48" value="Heating" style="swimlane;fontStyle=0;childLayout=stackLayout;horizontal=1;startSize=26;fillColor=none;horizontalStack=0;resizeParent=1;resizeParentMax=0;resizeLast=0;collapsible=1;marginBottom=0;whiteSpace=wrap;html=1;" vertex="1" parent="1">
          <mxGeometry x="93" y="206" width="140" height="78" as="geometry" />
        </mxCell>
        <mxCell id="4RLCPVnjVEkTh-LawadL-49" value="entru/startup" style="text;strokeColor=none;fillColor=none;align=left;verticalAlign=top;spacingLeft=4;spacingRight=4;overflow=hidden;rotatable=0;points=[[0,0.5],[1,0.5]];portConstraint=eastwest;whiteSpace=wrap;html=1;" vertex="1" parent="4RLCPVnjVEkTh-LawadL-48">
          <mxGeometry y="26" width="140" height="26" as="geometry" />
        </mxCell>
        <mxCell id="4RLCPVnjVEkTh-LawadL-50" value="exit/shutDown" style="text;strokeColor=none;fillColor=none;align=left;verticalAlign=top;spacingLeft=4;spacingRight=4;overflow=hidden;rotatable=0;points=[[0,0.5],[1,0.5]];portConstraint=eastwest;whiteSpace=wrap;html=1;" vertex="1" parent="4RLCPVnjVEkTh-LawadL-48">
          <mxGeometry y="52" width="140" height="26" as="geometry" />
        </mxCell>
        <mxCell id="4RLCPVnjVEkTh-LawadL-52" value="" style="endArrow=open;endFill=1;endSize=8;html=1;exitX=0.339;exitY=0.947;exitDx=0;exitDy=0;entryX=0;entryY=0.5;entryDx=0;entryDy=0;exitPerimeter=0;" edge="1" parent="1" source="4RLCPVnjVEkTh-LawadL-50" target="4RLCPVnjVEkTh-LawadL-44">
          <mxGeometry width="160" relative="1" as="geometry">
            <mxPoint x="627" y="333" as="sourcePoint" />
            <mxPoint x="627" y="357" as="targetPoint" />
            <Array as="points">
              <mxPoint x="141" y="369" />
            </Array>
          </mxGeometry>
        </mxCell>
        <mxCell id="4RLCPVnjVEkTh-LawadL-53" value="" style="endArrow=open;endFill=1;endSize=8;html=1;exitX=1;exitY=0.25;exitDx=0;exitDy=0;entryX=0.25;entryY=1;entryDx=0;entryDy=0;" edge="1" parent="1" source="4RLCPVnjVEkTh-LawadL-48" target="4RLCPVnjVEkTh-LawadL-29">
          <mxGeometry width="160" relative="1" as="geometry">
            <mxPoint x="637" y="343" as="sourcePoint" />
            <mxPoint x="637" y="367" as="targetPoint" />
            <Array as="points">
              <mxPoint x="301" y="226" />
            </Array>
          </mxGeometry>
        </mxCell>
        <mxCell id="4RLCPVnjVEkTh-LawadL-54" value="" style="endArrow=open;endFill=1;endSize=8;html=1;exitX=0.013;exitY=0.606;exitDx=0;exitDy=0;entryX=0.5;entryY=0;entryDx=0;entryDy=0;exitPerimeter=0;" edge="1" parent="1" source="4RLCPVnjVEkTh-LawadL-29" target="4RLCPVnjVEkTh-LawadL-48">
          <mxGeometry width="160" relative="1" as="geometry">
            <mxPoint x="647" y="353" as="sourcePoint" />
            <mxPoint x="647" y="377" as="targetPoint" />
            <Array as="points">
              <mxPoint x="163" y="154" />
            </Array>
          </mxGeometry>
        </mxCell>
        <mxCell id="4RLCPVnjVEkTh-LawadL-55" value="" style="endArrow=open;endFill=1;endSize=8;html=1;exitX=0.5;exitY=0;exitDx=0;exitDy=0;entryX=0.5;entryY=1;entryDx=0;entryDy=0;" edge="1" parent="1" source="4RLCPVnjVEkTh-LawadL-43" target="4RLCPVnjVEkTh-LawadL-29">
          <mxGeometry width="160" relative="1" as="geometry">
            <mxPoint x="657" y="363" as="sourcePoint" />
            <mxPoint x="657" y="387" as="targetPoint" />
          </mxGeometry>
        </mxCell>
        <mxCell id="4RLCPVnjVEkTh-LawadL-56" value="Too hot" style="text;html=1;align=center;verticalAlign=middle;resizable=0;points=[];autosize=1;strokeColor=none;fillColor=none;" vertex="1" parent="1">
          <mxGeometry x="414" y="128" width="57" height="26" as="geometry" />
        </mxCell>
        <mxCell id="4RLCPVnjVEkTh-LawadL-57" value="Too cool [restart time &amp;gt;= 5 min]" style="text;html=1;align=center;verticalAlign=middle;resizable=0;points=[];autosize=1;strokeColor=none;fillColor=none;" vertex="1" parent="1">
          <mxGeometry x="109" y="131" width="183" height="26" as="geometry" />
        </mxCell>
        <mxCell id="4RLCPVnjVEkTh-LawadL-58" value="failure" style="text;html=1;align=center;verticalAlign=middle;resizable=0;points=[];autosize=1;strokeColor=none;fillColor=none;" vertex="1" parent="1">
          <mxGeometry x="452" y="349" width="51" height="26" as="geometry" />
        </mxCell>
        <mxCell id="4RLCPVnjVEkTh-LawadL-59" value="failure" style="text;html=1;align=center;verticalAlign=middle;resizable=0;points=[];autosize=1;strokeColor=none;fillColor=none;" vertex="1" parent="1">
          <mxGeometry x="187" y="345" width="51" height="26" as="geometry" />
        </mxCell>
        <mxCell id="4RLCPVnjVEkTh-LawadL-60" value="FailureCleared" style="text;html=1;align=center;verticalAlign=middle;resizable=0;points=[];autosize=1;strokeColor=none;fillColor=none;" vertex="1" parent="1">
          <mxGeometry x="350" y="284" width="97" height="26" as="geometry" />
        </mxCell>
        <mxCell id="4RLCPVnjVEkTh-LawadL-61" value="ok" style="text;html=1;align=center;verticalAlign=middle;resizable=0;points=[];autosize=1;strokeColor=none;fillColor=none;" vertex="1" parent="1">
          <mxGeometry x="394" y="174" width="31" height="26" as="geometry" />
        </mxCell>
        <mxCell id="4RLCPVnjVEkTh-LawadL-62" value="ok" style="text;html=1;align=center;verticalAlign=middle;resizable=0;points=[];autosize=1;strokeColor=none;fillColor=none;" vertex="1" parent="1">
          <mxGeometry x="287" y="174" width="31" height="26" as="geometry" />
        </mxCell>
        <mxCell id="4RLCPVnjVEkTh-LawadL-63" value="Compressor runnung" style="text;html=1;align=center;verticalAlign=middle;resizable=0;points=[];autosize=1;strokeColor=none;fillColor=none;" vertex="1" parent="1">
          <mxGeometry x="615" y="233" width="131" height="26" as="geometry" />
        </mxCell>
        <mxCell id="4RLCPVnjVEkTh-LawadL-64" value="Fan runnung" style="text;html=1;align=center;verticalAlign=middle;resizable=0;points=[];autosize=1;strokeColor=none;fillColor=none;" vertex="1" parent="1">
          <mxGeometry x="620" y="310" width="86" height="26" as="geometry" />
        </mxCell>
      </root>
    </mxGraphModel>
  </diagram>
</mxfile>
